<svg xmlns="http://www.w3.org/2000/svg" xmlns:xlink="http://www.w3.org/1999/xlink" width="1000" zoomAndPan="magnify" viewBox="0 0 750 749.999995" height="1000" preserveAspectRatio="xMidYMid meet" version="1.2"><defs><clipPath id="0d65e31f04"><path d="M 309.425781 269.007812 L 451 269.007812 L 451 479.757812 L 309.425781 479.757812 Z M 309.425781 269.007812 "/></clipPath></defs><g id="eb431f1c7c"><g clip-rule="nonzero" clip-path="url(#0d65e31f04)"><path style=" stroke:none;fill-rule:nonzero;fill:'curentColor';fill-opacity:1;" d="M 408.824219 308.203125 C 409.152344 308.277344 409.488281 308.070312 409.5625 307.734375 C 409.582031 307.652344 409.582031 307.5625 409.5625 307.480469 L 406.785156 293.09375 C 406.742188 292.847656 406.554688 292.652344 406.308594 292.597656 L 362.984375 283.378906 C 362.742188 283.324219 362.488281 283.421875 362.347656 283.621094 L 353.90625 295.613281 C 353.707031 295.894531 353.78125 296.277344 354.066406 296.46875 C 354.132812 296.519531 354.210938 296.546875 354.289062 296.5625 Z M 425 311.566406 L 446.769531 316.121094 C 449.46875 316.679688 451.199219 319.304688 450.636719 321.984375 C 450.628906 322.027344 450.617188 322.070312 450.609375 322.109375 L 450.183594 323.875 C 449.21875 327.964844 446.671875 329.578125 442.542969 328.707031 L 315.316406 301.90625 C 311.261719 301.050781 309.445312 298.570312 309.886719 294.46875 L 310.0625 292.757812 C 310.339844 290.15625 312.683594 288.261719 315.296875 288.539062 C 315.460938 288.558594 315.617188 288.582031 315.78125 288.617188 L 338.488281 293.394531 C 338.839844 293.46875 339.207031 293.320312 339.410156 293.019531 L 354.199219 272.324219 C 355.75 270.152344 358.449219 269.097656 361.070312 269.644531 L 413.25 280.523438 C 416.007812 281.097656 418.160156 283.253906 418.714844 286.007812 L 423.722656 310.28125 C 423.851562 310.925781 424.351562 311.429688 425 311.566406 Z M 333.566406 458.507812 C 333.972656 463.371094 337.226562 466.4375 342.152344 466.4375 C 365.75 466.4375 389.351562 466.433594 412.949219 466.417969 C 419.25 466.402344 420.84375 461.5 421.316406 455.855469 C 424.222656 421.070312 427.128906 385.320312 430.042969 348.609375 C 430.382812 344.285156 432.726562 342.25 437.070312 342.511719 L 438.539062 342.601562 C 441.398438 342.777344 443.574219 345.226562 443.394531 348.074219 C 443.394531 348.105469 443.390625 348.140625 443.390625 348.167969 C 440.5 383.289062 437.691406 417.589844 434.964844 451.066406 C 434.242188 459.976562 433.035156 465.957031 431.335938 469.015625 C 426.34375 478.039062 418.078125 479.609375 407.566406 479.609375 C 388.511719 479.609375 369.457031 479.621094 350.398438 479.644531 C 341.664062 479.644531 335.6875 478.921875 332.46875 477.472656 C 323.230469 473.347656 320.714844 465.769531 319.902344 455.542969 C 317.128906 421.28125 314.28125 386 311.355469 349.703125 C 311.007812 345.449219 312.96875 343.140625 317.230469 342.777344 L 318.769531 342.636719 C 321.582031 342.390625 324.066406 344.46875 324.304688 347.269531 C 324.304688 347.273438 324.304688 347.285156 324.3125 347.289062 C 327.492188 385.957031 330.582031 423.03125 333.566406 458.507812 Z M 345.269531 342.53125 L 346.085938 342.492188 C 349.539062 342.34375 352.464844 345.011719 352.617188 348.457031 L 357.019531 448.894531 C 357.167969 452.339844 354.488281 455.246094 351.035156 455.398438 L 350.21875 455.433594 C 346.761719 455.585938 343.835938 452.917969 343.6875 449.472656 L 339.28125 349.039062 C 339.132812 345.59375 341.8125 342.679688 345.269531 342.53125 Z M 376.875 342.476562 L 377.65625 342.476562 C 381.066406 342.476562 383.832031 345.230469 383.832031 348.632812 L 383.832031 449.265625 C 383.832031 452.664062 381.066406 455.417969 377.65625 455.417969 L 376.875 455.417969 C 373.460938 455.417969 370.699219 452.664062 370.699219 449.265625 L 370.699219 348.632812 C 370.699219 345.230469 373.460938 342.476562 376.875 342.476562 Z M 408.375 342.511719 L 409.296875 342.550781 C 412.710938 342.699219 415.367188 345.578125 415.214844 348.984375 L 410.808594 449.527344 C 410.660156 452.929688 407.769531 455.566406 404.347656 455.417969 L 403.429688 455.378906 C 400.011719 455.234375 397.363281 452.351562 397.511719 448.945312 L 401.917969 348.40625 C 402.0625 345 404.960938 342.359375 408.375 342.511719 Z M 408.375 342.511719 "/></g></g></svg>