<?xml version="1.0" encoding="UTF-8" standalone="no"?>
<svg
   fill="currentColor"
   zoomAndPan="magnify"
   viewBox="0 0 150 150"
   preserveAspectRatio="xMidYMid meet"
   height="1em"
   width="1em"
   version="1.2"
   id="svg123"
   sodipodi:docname="icon_supprimer.svg"
   inkscape:version="1.1.2 (0a00cf5339, 2022-02-04)"
   xmlns:inkscape="http://www.inkscape.org/namespaces/inkscape"
   xmlns:sodipodi="http://sodipodi.sourceforge.net/DTD/sodipodi-0.dtd"
   xmlns="http://www.w3.org/2000/svg"
   xmlns:svg="http://www.w3.org/2000/svg">
  <sodipodi:namedview
     id="namedview125"
     pagecolor="#505050"
     bordercolor="#eeeeee"
     borderopacity="1"
     inkscape:pageshadow="0"
     inkscape:pageopacity="0"
     inkscape:pagecheckerboard="0"
     showgrid="false"
     inkscape:zoom="0.782"
     inkscape:cx="499.36061"
     inkscape:cy="193.09463"
     inkscape:window-width="1920"
     inkscape:window-height="955"
     inkscape:window-x="0"
     inkscape:window-y="0"
     inkscape:window-maximized="1"
     inkscape:current-layer="svg123" />
  <defs
     id="defs116">
    <clipPath
       id="0d65e31f04">
      <path
         d="M 309.42578,269.00781 H 451 v 210.75 H 309.42578 Z m 0,0"
         id="path113" />
    </clipPath>
  </defs>
  <g
     id="eb431f1c7c"
     transform="matrix(0.67565261,0,0,0.70041972,-180.3417,-188.42912)">
    <g
       clip-rule="nonzero"
       clip-path="url(#0d65e31f04)"
       id="g120">
      <path
         style="fill-opacity:1;fill-rule:nonzero;stroke:none"
         d="m 408.82422,308.20312 c 0.32812,0.0742 0.66406,-0.13281 0.73828,-0.46875 0.0195,-0.082 0.0195,-0.17187 0,-0.2539 l -2.77734,-14.38672 c -0.043,-0.24609 -0.23047,-0.44141 -0.47657,-0.49609 l -43.32422,-9.21875 c -0.24218,-0.0547 -0.49609,0.043 -0.63671,0.24218 l -8.44141,11.99219 c -0.19922,0.28125 -0.125,0.66406 0.16016,0.85547 0.0664,0.0508 0.14453,0.0781 0.22265,0.0937 z M 425,311.56641 l 21.76953,4.55468 c 2.69922,0.5586 4.42969,3.1836 3.86719,5.86328 -0.008,0.043 -0.0195,0.0859 -0.0274,0.125 l -0.42578,1.76563 c -0.96484,4.08984 -3.51172,5.70312 -7.64062,4.83203 L 315.31641,301.90625 c -4.05469,-0.85547 -5.8711,-3.33594 -5.42969,-7.4375 l 0.17578,-1.71094 c 0.27734,-2.60156 2.62109,-4.49609 5.23437,-4.21875 0.16407,0.0195 0.32032,0.043 0.48438,0.0781 l 22.70703,4.77734 c 0.35156,0.0742 0.71875,-0.0742 0.92188,-0.375 l 14.78906,-20.69531 c 1.55078,-2.17188 4.25,-3.22656 6.87109,-2.67969 L 413.25,280.52344 c 2.75781,0.57422 4.91016,2.73047 5.46484,5.48437 l 5.00782,24.27344 c 0.1289,0.64453 0.6289,1.14844 1.27734,1.28516 z m -91.43359,146.9414 c 0.40625,4.86328 3.66015,7.92969 8.58593,7.92969 23.59766,0 47.19922,-0.004 70.79688,-0.0195 6.30078,-0.0156 7.89453,-4.91797 8.36719,-10.5625 2.90625,-34.78516 5.8125,-70.53516 8.72656,-107.2461 0.33984,-4.32421 2.68359,-6.35937 7.02734,-6.09765 l 1.46875,0.0898 c 2.85938,0.17578 5.03516,2.625 4.85547,5.47266 0,0.0312 -0.004,0.0664 -0.004,0.0937 -2.89062,35.12109 -5.69921,69.42187 -8.42578,102.89844 -0.72265,8.91015 -1.92968,14.89062 -3.6289,17.94921 -4.99219,9.02344 -13.25782,10.59375 -23.76953,10.59375 -19.05469,0 -38.10938,0.0117 -57.16797,0.0352 -8.73438,0 -14.71094,-0.72266 -17.92969,-2.17187 -9.23828,-4.125 -11.75391,-11.70313 -12.56641,-21.92969 -2.77343,-34.26172 -5.62109,-69.54297 -8.54687,-105.83985 -0.34766,-4.2539 1.61328,-6.5625 5.875,-6.92578 l 1.53906,-0.14062 c 2.8125,-0.2461 5.29688,1.83203 5.53516,4.63281 0,0.004 0,0.0156 0.008,0.0195 3.17969,38.66797 6.26953,75.74219 9.25391,111.21875 z m 11.70312,-115.97656 0.81641,-0.0391 c 3.45312,-0.14844 6.3789,2.51953 6.53125,5.96484 l 4.40234,100.4375 c 0.14844,3.44531 -2.53125,6.35156 -5.98437,6.50391 l -0.81641,0.0351 c -3.45703,0.15235 -6.38281,-2.51562 -6.53125,-5.96093 l -4.40625,-100.4336 c -0.14844,-3.44531 2.53125,-6.35937 5.98828,-6.50781 z m 31.60547,-0.0547 h 0.78125 c 3.41016,0 6.17578,2.75391 6.17578,6.15625 v 100.63281 c 0,3.39844 -2.76562,6.15235 -6.17578,6.15235 H 376.875 c -3.41406,0 -6.17578,-2.75391 -6.17578,-6.15235 v -100.6328 c 0,-3.40234 2.76172,-6.15625 6.17578,-6.15625 z m 31.5,0.0352 0.92187,0.0391 c 3.41407,0.14844 6.07032,3.02734 5.91797,6.43359 l -4.40625,100.54297 c -0.14843,3.40235 -3.03906,6.03907 -6.46093,5.89063 l -0.91797,-0.0391 c -3.41797,-0.14454 -6.06641,-3.02735 -5.91797,-6.4336 l 4.40625,-100.53906 c 0.14453,-3.40625 3.04297,-6.04688 6.45703,-5.89453 z m 0,0"
         id="path118" />
    </g>
  </g>
</svg>
